<svg width="30" height="30" viewBox="0 0 30 30" fill="none" xmlns="http://www.w3.org/2000/svg">
<path d="M28.7072 30L17.2404 18.5346C16.3248 19.3146 15.2719 19.9182 14.0817 20.3454C12.8914 20.7727 11.6951 20.9863 10.4926 20.9863C7.56028 20.9863 5.07843 19.9713 3.04706 17.9414C1.01569 15.9103 0 13.4294 0 10.4986C0 7.5679 1.01447 5.08575 3.0434 3.05218C5.07355 1.01739 7.55417 0 10.4853 0C13.4176 0 15.9006 1.01556 17.9344 3.04669C19.9683 5.07782 20.9852 7.55996 20.9852 10.4931C20.9852 11.765 20.7599 12.996 20.3095 14.1861C19.8578 15.3763 19.2657 16.3943 18.5332 17.2402L30 28.7037L28.7072 30ZM10.4926 19.1535C12.9219 19.1535 14.9734 18.3174 16.6471 16.6451C18.3196 14.9728 19.1558 12.9216 19.1558 10.4913C19.1558 8.06225 18.3196 6.0116 16.6471 4.33933C14.9747 2.66707 12.9238 1.83094 10.4944 1.83094C8.06507 1.83094 6.01355 2.66707 4.33986 4.33933C2.6674 6.0116 1.83117 8.06225 1.83117 10.4913C1.83117 12.9204 2.6674 14.971 4.33986 16.6433C6.01233 18.3155 8.06324 19.1535 10.4926 19.1535Z" fill="black"/>
</svg>
